# xmcd CD database file
#
# Track frame offsets:
#	150
#	25330
#	37285
#	61210
#	80355
#	101472
#	145803
#	164068
#	192095
#	206665
#	224688
#
# Disc length: 3230 seconds
#
# Revision: 0
# Processed by: cddbd v1.5.1PL0 Copyright (c) Steve Scherf et al.
# Submitted via: CDex 1.51
#
DISCID=a40c9c0b
DTITLE=2chpc参加者 - ２ちゃんねるピアノ発表会（2HPC)2004秋 disc1
DYEAR=2004
DGENRE=Classical
TTITLE0=ベートーベン：エリーゼのために
TTITLE1=さんちゃんといっしょ
TTITLE2=ベートーベン：悲壮ソナタより第３楽章
TTITLE3=シューマン：飛翔
TTITLE4=グリーグ：ピアノソナタOp.7より第3楽章
TTITLE5=グリーグ：ピアノソナタOp.7より第4楽章
TTITLE6=坂本龍一：エナジーフロー
TTITLE7=チャイコフスキー：花のワルツ
TTITLE8=植松信夫：ファイナルファンタジーＸより「ザナルカンドにて」
TTITLE9=ラフマニノフ：幻想的小品集より第2番
TTITLE10=Yiruma：Falling
EXTD=YEAR: 2004
EXTT0=
EXTT1=
EXTT2=
EXTT3=
EXTT4=
EXTT5=
EXTT6=
EXTT7=
EXTT8=
EXTT9=
EXTT10=
PLAYORDER=
